<?xml version="1.0" encoding="UTF-8" standalone="no"?>
<svg
   xmlns:dc="http://purl.org/dc/elements/1.1/"
   xmlns:cc="http://creativecommons.org/ns#"
   xmlns:rdf="http://www.w3.org/1999/02/22-rdf-syntax-ns#"
   xmlns:svg="http://www.w3.org/2000/svg"
   xmlns="http://www.w3.org/2000/svg"
   id="svg2985"
   viewBox="0 0 3629.9086 1001"
   style="fill-rule:evenodd"
   version="1.1"
   height="90.086952"
   width="326.68896"
   xml:space="preserve"><defs
     id="defs2987"><style
       id="style2989"
       type="text/css">
    .fil0 {fill:#006E2E}
    .fil1 {fill:#36393D;fill-rule:nonzero}
   </style></defs><g
     transform="translate(-5140.1474,-3619)"
     id="Layer_x0020_1"><path
       style="fill:#ffffff;fill-rule:nonzero"
       id="path2995"
       d="m 5270,4554 c 0,18 -6,34 -19,47 -12,12 -28,19 -46,19 -18,0 -33,-7 -46,-19 -13,-13 -19,-29 -19,-47 l 0,-869 c 0,-18 6,-34 19,-47 13,-12 28,-19 46,-19 18,0 33,7 46,19 12,13 19,28 19,47 l 0,300 c 56,-43 121,-65 196,-65 44,0 85,9 124,26 40,17 74,40 104,70 30,29 54,64 72,104 17,39 26,82 26,127 l 0,307 c -1,18 -7,34 -20,47 -13,12 -28,19 -46,19 -18,0 -33,-7 -46,-19 -12,-13 -19,-29 -19,-47 l 0,-307 c 0,-27 -5,-52 -15,-76 -11,-24 -25,-44 -43,-62 -17,-18 -38,-32 -62,-42 -23,-11 -49,-16 -75,-16 -27,0 -53,5 -76,15 -24,11 -44,25 -62,43 -18,18 -32,38 -42,62 -10,24 -16,49 -16,76 l 0,307 z m 1321,-285 c 0,98 -34,181 -103,248 -69,69 -151,103 -247,103 -97,0 -180,-34 -248,-103 -68,-68 -103,-151 -103,-248 0,-96 35,-179 103,-247 68,-69 151,-103 248,-103 96,0 178,34 247,103 35,34 60,72 77,113 17,41 26,86 26,134 z m -350,-219 c -31,0 -60,5 -87,17 -26,12 -49,28 -69,47 -20,20 -35,44 -47,70 -11,27 -17,55 -17,85 0,31 6,59 17,86 12,26 27,50 47,69 20,20 43,36 69,48 27,11 56,17 87,17 30,0 59,-6 86,-17 26,-12 50,-28 69,-48 20,-20 36,-43 47,-70 12,-26 17,-54 17,-85 0,-30 -5,-58 -17,-84 -11,-27 -27,-50 -47,-70 -19,-20 -43,-36 -69,-48 -27,-12 -56,-17 -86,-17 z m 1151,219 c 0,98 -34,181 -103,248 -69,69 -152,103 -248,103 -96,0 -179,-34 -247,-103 -69,-68 -103,-151 -103,-248 0,-96 34,-179 103,-247 68,-69 151,-103 247,-103 96,0 179,34 248,103 34,34 60,72 77,113 17,41 25,86 26,134 z m -351,-219 c -31,0 -59,5 -86,17 -27,12 -50,28 -69,47 -20,20 -36,44 -47,70 -12,27 -17,55 -17,85 0,31 5,59 17,86 11,26 27,50 47,69 19,20 42,36 69,48 27,11 55,17 86,17 31,0 60,-6 86,-17 27,-12 50,-28 70,-48 20,-20 36,-43 47,-70 11,-26 17,-54 17,-85 0,-30 -6,-58 -17,-84 -11,-27 -27,-50 -47,-70 -20,-20 -43,-36 -70,-48 -26,-12 -55,-17 -86,-17 z m 1440,504 c 0,18 -7,34 -20,47 -12,12 -28,19 -46,19 -18,0 -34,-7 -46,-19 -13,-13 -19,-29 -19,-47 l 0,-356 c 0,-20 -4,-39 -11,-57 -8,-18 -19,-34 -32,-47 -13,-14 -29,-24 -47,-32 -18,-8 -37,-12 -58,-12 -21,0 -40,4 -58,12 -18,8 -33,18 -47,31 -13,14 -24,30 -31,47 -8,18 -12,38 -12,58 l 0,356 c 0,18 -6,34 -19,47 -13,12 -28,19 -46,19 -18,0 -34,-7 -47,-19 -12,-13 -19,-29 -19,-47 l 0,-356 c 0,-20 -4,-40 -12,-58 -7,-17 -18,-33 -32,-47 -13,-13 -29,-23 -46,-31 -18,-8 -38,-12 -58,-12 -21,0 -40,4 -58,11 -18,8 -34,19 -47,32 -14,14 -24,30 -32,47 -8,18 -12,38 -12,58 l 0,356 c 0,18 -6,34 -19,47 -13,12 -28,19 -46,19 -18,0 -34,-7 -46,-19 -13,-13 -19,-29 -19,-47 l 0,-570 c 0,-18 6,-33 19,-46 12,-13 28,-19 46,-19 14,0 27,4 38,12 12,8 19,19 23,32 45,-29 96,-44 152,-44 42,0 81,8 118,25 37,16 69,41 96,75 58,-67 130,-100 214,-100 38,0 74,8 108,22 34,15 63,35 89,60 25,25 45,55 59,89 15,34 23,70 23,108 l 0,356 z m 289,-759 c 0,21 -8,39 -23,54 -15,15 -33,23 -54,23 -21,0 -40,-8 -55,-23 -15,-15 -22,-33 -22,-54 0,-22 7,-39 22,-55 15,-15 34,-22 55,-22 21,0 39,7 54,22 15,16 23,33 23,55 z m -143,759 0,-569 c 0,-19 7,-34 19,-47 13,-12 28,-19 46,-19 18,0 33,7 46,19 13,13 19,28 20,47 l 0,569 c -1,18 -7,34 -20,47 -13,12 -28,19 -46,19 -18,0 -33,-7 -46,-19 -12,-13 -19,-29 -19,-47 z"
       class="fil1" /></g></svg>