<?xml version="1.0" encoding="UTF-8" standalone="no"?>
<svg
   xmlns:dc="http://purl.org/dc/elements/1.1/"
   xmlns:cc="http://creativecommons.org/ns#"
   xmlns:rdf="http://www.w3.org/1999/02/22-rdf-syntax-ns#"
   xmlns:svg="http://www.w3.org/2000/svg"
   xmlns="http://www.w3.org/2000/svg"
   id="svg2985"
   viewBox="0 0 1565.9606 1566.0001"
   style="fill-rule:evenodd"
   version="1.1"
   height="140.93524"
   width="140.93524"
   xml:space="preserve"><defs
     id="defs2987"><style
       id="style2989"
       type="text/css">
    .fil0 {fill:#006E2E}
    .fil1 {fill:#36393D;fill-rule:nonzero}
   </style></defs><g
     transform="translate(-2923.1474,-3351)"
     id="Layer_x0020_1"><path
       style="fill:#ffffff"
       id="path2993"
       d="m 3706,4917 c 80,0 157,-12 230,-34 l 0,-600 c 0,-31 -6,-61 -19,-88 -12,-28 -28,-53 -49,-74 -21,-20 -45,-37 -73,-49 -28,-13 -57,-19 -89,-19 -32,0 -61,6 -89,19 -27,12 -52,28 -73,49 -21,21 -37,46 -49,74 -12,27 -18,57 -18,88 l 0,361 c 0,22 -8,40 -22,55 -15,15 -34,22 -55,22 -21,0 -39,-7 -54,-22 -15,-15 -22,-33 -22,-55 l 0,-1194 c -239,135 -401,390 -401,684 0,432 351,783 783,783 z m 383,-100 c 239,-134 400,-390 400,-683 0,-433 -350,-783 -783,-783 -80,0 -157,12 -229,34 l 0,591 c 65,-51 141,-76 229,-76 52,0 100,10 147,30 46,20 86,48 122,82 35,35 63,75 83,122 21,47 31,97 31,150 l 0,533 z"
       class="fil0" /></g></svg>